<svg width="48" height="48" xmlns="http://www.w3.org/2000/svg">

 <g>
  <title>background</title>
  <rect fill="none" id="canvas_background" height="402" width="582" y="-1" x="-1"/>
 </g>
 <g>
  <title>Layer 1</title>
  <path id="svg_1" fill="none" d="m0,0l48,0l0,48l-48,0l0,-48z"/>
  <path fill="#157efb" id="svg_2" d="m44,11.190001l-9.19,-7.71l-2.57,3.06l9.19,7.71l2.57,-3.06zm-28.24,-4.66l-2.57,-3.06l-9.19,7.71l2.57,3.06l9.19,-7.71zm9.24,9.22l-3,0l0,12l9.49,5.71l1.51,-2.47l-8,-4.74l0,-10.5zm-1.01,-8c-9.95,0 -17.99,8.06 -17.99,18s8.04,18 17.99,18s18.01,-8.06 18.01,-18s-8.06,-18 -18.01,-18zm0.01,32c-7.73,0 -14,-6.27 -14,-14s6.27,-14 14,-14s14,6.27 14,14s-6.26,14 -14,14z"/>
 </g>
</svg>