<?xml version="1.0" encoding="utf-8"?>
<!-- Generator: Adobe Illustrator 22.0.1, SVG Export Plug-In . SVG Version: 6.00 Build 0)  -->
<svg version="1.1" id="Layer_1" xmlns="http://www.w3.org/2000/svg" xmlns:xlink="http://www.w3.org/1999/xlink" x="0px" y="0px"
	 viewBox="0 0 24 24" style="enable-background:new 0 0 24 24;" xml:space="preserve">
<style type="text/css">
	.st0{fill:#707070;}
</style>
<path id="svg_2" class="st0" d="M22,5.8L17.4,2l-1.3,1.5l4.6,3.8C20.7,7.4,22,5.8,22,5.8z M7.9,3.5L6.6,2L2,5.8l1.3,1.5L7.9,3.5z
	 M12.5,8.1H11v6l4.7,2.8l0.8-1.2l-4-2.4C12.5,13.3,12.5,8.1,12.5,8.1z M12,4.1c-5,0-9,4-9,8.9s4,9,9,9s9-4,9-8.9S17,4.1,12,4.1z
	 M12,20c-3.9,0-7-3.1-7-7s3.1-7,7-7s7,3.1,7,7S15.9,20,12,20z"/>
</svg>
