<?xml version="1.0" encoding="utf-8"?>
<!-- Generator: Adobe Illustrator 22.0.1, SVG Export Plug-In . SVG Version: 6.00 Build 0)  -->
<svg version="1.1" id="Layer_1" xmlns:sketch="http://www.bohemiancoding.com/sketch/ns"
	 xmlns="http://www.w3.org/2000/svg" xmlns:xlink="http://www.w3.org/1999/xlink" x="0px" y="0px" viewBox="0 0 24 24"
	 style="enable-background:new 0 0 24 24;" xml:space="preserve">
<title></title>
<desc></desc>
<g id="Page-1">
	<g id="icon-132-cloud">
		<path id="cloud" d="M20.5,11.1c1.5,0.6,2.5,2.1,2.5,3.8c0,2.3-1.8,4.1-4.1,4.1H5.1C2.8,19,1,17.2,1,14.9c0-1.7,1-3.1,2.5-3.8l0,0
			c0-0.1,0-0.2,0-0.3C3.4,7.6,6,5,9.1,5c2.1,0,4,1.2,5,2.9c0.6-0.3,1.3-0.5,2-0.5C18.2,7.5,20,9,20.5,11.1z"/>
	</g>
</g>
</svg>
