<?xml version="1.0" encoding="utf-8"?>
<!-- Generator: Adobe Illustrator 22.0.1, SVG Export Plug-In . SVG Version: 6.00 Build 0)  -->
<svg version="1.1" id="Capa_1" xmlns="http://www.w3.org/2000/svg" xmlns:xlink="http://www.w3.org/1999/xlink" x="0px" y="0px"
	 viewBox="0 0 24 24" style="enable-background:new 0 0 24 24;" xml:space="preserve">
<g>
	<path d="M17.5,11.5c-1,2.2-3.3,4.1-5.5,4.1c-2.7,0-4.6-1.8-5.7-4C0.3,14.5,1,21.8,1,21.8c0,1,0.9,1.2,1.9,1.2H12h9.1
		c1,0,1.9-0.1,1.9-1.2C23,21.8,23.6,14.4,17.5,11.5z"/>
	<path d="M12,14.4c3,0,5.4-4,5.4-7.4S15,1,12,1S6.5,3.7,6.5,7C6.5,10.4,9,14.4,12,14.4z"/>
</g>
</svg>
