<?xml version="1.0" encoding="utf-8"?>
<!-- Generator: Adobe Illustrator 22.0.1, SVG Export Plug-In . SVG Version: 6.00 Build 0)  -->
<svg version="1.1" id="Layer_1" xmlns="http://www.w3.org/2000/svg" xmlns:xlink="http://www.w3.org/1999/xlink" x="0px" y="0px"
	 viewBox="0 0 24 24" style="enable-background:new 0 0 24 24;" xml:space="preserve">
<style type="text/css">
	.st0{fill:#707070;}
</style>
<g>
	<path class="st0" d="M6.8,9.9c0.1-0.2,0.1-0.4,0.1-0.6V8.7c0-0.2,0-0.4-0.1-0.6C6.7,8,6.5,7.9,6.3,7.9C6.1,7.9,6,8,5.8,8.1
		C5.7,8.3,5.7,8.5,5.7,8.7v0.5c0,0.2,0.1,0.4,0.2,0.6C6,10,6.2,10,6.4,10C6.5,10.1,6.7,10.1,6.8,9.9L6.8,9.9z"/>
	<path class="st0" d="M10.4,13.8c-0.2,0-0.4,0.1-0.5,0.2c-0.1,0.2-0.2,0.4-0.2,0.6v0.5c0,0.2,0.1,0.4,0.2,0.6
		c0.1,0.2,0.3,0.2,0.5,0.2s0.4-0.1,0.5-0.2c0.1-0.1,0.1-0.4,0.1-0.6v-0.5c0-0.2-0.1-0.4-0.2-0.6C10.7,13.9,10.6,13.8,10.4,13.8
		L10.4,13.8z"/>
	<path class="st0" d="M1,4.5v15h22v-15H1z M4.4,9.3V8.7c0-0.6,0.2-1.1,0.5-1.5s0.8-0.6,1.4-0.6s1.1,0.2,1.4,0.6
		C8,7.6,8.2,8.1,8.2,8.7v0.6c0,0.6-0.1,1.1-0.5,1.5c-0.3,0.4-0.8,0.6-1.4,0.6s-1.1-0.2-1.4-0.6C4.6,10.4,4.4,9.9,4.4,9.3L4.4,9.3z
		 M5.7,15.8l4.2-8.2l0.9,0.6l-4.2,8.2L5.7,15.8L5.7,15.8z M12.3,15.2c0,0.6-0.2,1.1-0.5,1.5c-0.3,0.4-0.8,0.6-1.4,0.6
		c-0.6,0-1.1-0.2-1.4-0.6c-0.3-0.4-0.5-0.9-0.5-1.5v-0.6c0-0.6,0.2-1.1,0.5-1.5s0.8-0.6,1.4-0.6c0.6,0,1.1,0.2,1.4,0.6
		c0.3,0.4,0.5,0.9,0.5,1.5V15.2z M16.9,17.3h-1.3v-2.6h1.3V17.3z M16.9,13.3h-1.3v-2.6h1.3V13.3z M16.9,9.2h-1.3V6.6h1.3V9.2z"/>
</g>
</svg>
