<?xml version="1.0" encoding="utf-8"?>
<!-- Generator: Adobe Illustrator 22.0.1, SVG Export Plug-In . SVG Version: 6.00 Build 0)  -->
<svg version="1.1" id="Layer_1" xmlns:sketch="http://www.bohemiancoding.com/sketch/ns"
	 xmlns="http://www.w3.org/2000/svg" xmlns:xlink="http://www.w3.org/1999/xlink" x="0px" y="0px" viewBox="0 0 24 24"
	 style="enable-background:new 0 0 24 24;" xml:space="preserve">
<style type="text/css">
	.st0{fill:#707070;}
</style>
<title></title>
<desc></desc>
<g id="Page-1">
	<g id="icon-57-document-download">
		<path id="document-download" class="st0" d="M11.6,19l-2.7-2.6L8.3,17l3.8,3.7l3.8-3.7l-0.6-0.6L12.4,19v-9h-0.8L11.6,19L11.6,19z
			 M14.1,1H5.7C4.8,1,4,1.7,4,2.6v18.7c0,1,0.8,1.7,1.7,1.7h12.6c0.9,0,1.7-0.7,1.7-1.6V7.5h-4.2c-0.9,0-1.7-0.7-1.7-1.6V1L14.1,1z
			 M14.9,1v4.9c0,0.5,0.4,0.8,0.8,0.8H20L14.9,1L14.9,1z"/>
	</g>
</g>
</svg>
