<?xml version="1.0" encoding="utf-8"?>
<!-- Generator: Adobe Illustrator 22.0.1, SVG Export Plug-In . SVG Version: 6.00 Build 0)  -->
<svg version="1.1" id="Layer_1" xmlns:sketch="http://www.bohemiancoding.com/sketch/ns"
	 xmlns="http://www.w3.org/2000/svg" xmlns:xlink="http://www.w3.org/1999/xlink" x="0px" y="0px" viewBox="0 0 24 24"
	 style="enable-background:new 0 0 24 24;" xml:space="preserve">
<style type="text/css">
	.st0{fill:#157EFB;}
</style>
<title></title>
<desc></desc>
<g id="Page-1">
	<g id="icon-136-document-edit">
		<path id="document-edit" class="st0" d="M20,8.5l-9.1,9.2l0,0l-2.1-2.1l9.1-9.2L20,8.5L20,8.5z M20.6,7.9L22,6.5
			c0.3-0.3,0.3-0.8,0-1.2l-1-1c-0.3-0.3-0.8-0.3-1.1,0l-1.4,1.4L20.6,7.9L20.6,7.9z M8.2,16.2l-0.5,2.5l2.5-0.5L8.2,16.2L8.2,16.2
			L8.2,16.2z M16.4,13.2v8.2c0,0.9-0.7,1.6-1.6,1.6H2.6C1.7,23,1,22.3,1,21.4V2.6C1,1.7,1.7,1,2.6,1h8.1v4.9c0,0.9,0.7,1.6,1.6,1.6
			h3.2l3.7-3.7c0.6-0.6,1.7-0.6,2.3,0l1,1c0.6,0.6,0.6,1.7,0,2.3L16.4,13.2L16.4,13.2z M11.5,1v4.9c0,0.5,0.4,0.8,0.8,0.8h4.1
			L11.5,1L11.5,1z"/>
	</g>
</g>
</svg>
