<?xml version="1.0" encoding="utf-8"?>
<!-- Generator: Adobe Illustrator 22.0.1, SVG Export Plug-In . SVG Version: 6.00 Build 0)  -->
<svg version="1.1" id="Layer_1" xmlns:sketch="http://www.bohemiancoding.com/sketch/ns"
	 xmlns="http://www.w3.org/2000/svg" xmlns:xlink="http://www.w3.org/1999/xlink" x="0px" y="0px" viewBox="0 0 24 24"
	 style="enable-background:new 0 0 24 24;" xml:space="preserve">
<style type="text/css">
	.st0{fill:#157EFB;}
</style>
<title></title>
<desc></desc>
<g id="Page-1">
	<g id="icon-136-document-edit">
		<path id="document-edit" class="st0" d="M20,8.5l-9.1,9.2l0,0l-2.1-2.1l9.1-9.2L20,8.5L20,8.5z M20.6,7.9L22,6.5
			c0.3-0.3,0.3-0.8,0-1.2l-1-1c-0.3-0.3-0.8-0.3-1.1,0l-1.4,1.4L20.6,7.9L20.6,7.9z M8.2,16.2l-0.5,2.5l2.5-0.5L8.2,16.2L8.2,16.2
			L8.2,16.2z M16.4,6.7L16.4,6.7L11.5,1H2.6C1.7,1,1,1.7,1,2.6v18.7C1,22.3,1.7,23,2.6,23h12.1c0.9,0,1.6-0.7,1.6-1.6v-8.2L22.5,7
			c0.6-0.6,0.6-1.7,0-2.3l-1-1c-0.6-0.6-1.6-0.6-2.3,0L16.4,6.7L16.4,6.7L16.4,6.7z M15.6,14v7.3c0,0.4-0.4,0.8-0.8,0.8H2.6
			c-0.4,0-0.8-0.4-0.8-0.8V2.6c0-0.4,0.4-0.8,0.8-0.8h8.1v4.1c0,0.9,0.7,1.6,1.6,1.6h3.2l-8.1,8.1l-0.8,4.1l4-0.8L15.6,14L15.6,14
			L15.6,14z M11.5,2.2v3.7c0,0.5,0.4,0.8,0.8,0.8h3L11.5,2.2L11.5,2.2z"/>
	</g>
</g>
</svg>
