<?xml version="1.0" encoding="utf-8"?>
<!-- Generator: Adobe Illustrator 22.0.1, SVG Export Plug-In . SVG Version: 6.00 Build 0)  -->
<svg version="1.1" id="Layer_1" xmlns="http://www.w3.org/2000/svg" xmlns:xlink="http://www.w3.org/1999/xlink" x="0px" y="0px"
	 viewBox="0 0 24 24" style="enable-background:new 0 0 24 24;" xml:space="preserve">
<style type="text/css">
	.st0{fill:#157EFB;}
</style>
<g transform="translate(144 240)">
	<path class="st0" d="M-132.8-218.8c-2.1,0.4-6.1,0.4-7.3,0c-0.7-0.4-1.4-0.9-1.9-1.6c-0.8-1.1-1.2-2.5-1.3-3.9
		c-0.1-1.6,0.1-3.3,0.6-4.9c0.1-0.5,0.4-1,0.9-1.2c0.6-0.4,1.4-0.5,2.2-0.6c1.3,0,2.6,0.2,3.8,0.5c-0.7-0.8-1.1-1.9-1.3-3
		c-0.1-1-0.1-2.1,0-3.1c0-0.3,0.1-0.7,0.3-1c0.6-0.7,1.9-1.2,2.5-0.9c0.6,0.3,1.2,4.5,3.4,6.6c0.8,0.8,1.7,1.6,2.7,2.2
		c0.4,2,0.4,4,0.1,6c-0.1,0.9-0.2,1.8-0.7,2.6c-0.3,0.6-0.9,1.1-1.6,1.4C-131-219.2-131.9-219-132.8-218.8L-132.8-218.8z"/>
	<path class="st0" d="M-121.2-230.4h-2.9c-1.6,0-3,1.3-3,2.8v5.7c0,1.5,1.3,2.8,3,2.8h2.9V-230.4z"/>
</g>
</svg>
