<?xml version="1.0" encoding="utf-8"?>
<!-- Generator: Adobe Illustrator 22.0.1, SVG Export Plug-In . SVG Version: 6.00 Build 0)  -->
<svg version="1.1" id="Capa_1" xmlns="http://www.w3.org/2000/svg" xmlns:xlink="http://www.w3.org/1999/xlink" x="0px" y="0px"
	 viewBox="0 0 24 24" style="enable-background:new 0 0 24 24;" xml:space="preserve">
<style type="text/css">
	.st0{fill:#157EFB;}
	.st1{fill:#26B999;}
	.st2{fill:#FFFFFF;}
</style>
<g>
	<path class="st0" d="M17.3,3.2L17.3,3.2c-3.7-2.9-9.7-2.9-13.5,0l0,0c-3.4,2.7-3.7,7.7-0.9,10.7l7.6,8.7l7.6-8.7
		C21,10.9,20.6,5.9,17.3,3.2z M10.6,11c-1.7,0-3.1-1.1-3.1-2.5S8.9,6,10.6,6s3.1,1.1,3.1,2.5S12.3,11,10.6,11z"/>
	<g>
		<ellipse class="st1" cx="16.7" cy="18" rx="6.3" ry="5"/>
		<path class="st2" d="M20.2,15.6c-0.2-0.1-0.6-0.1-0.7,0.1L16.5,19l-2.1-1.3c-0.2-0.1-0.6-0.1-0.7,0.1c-0.2,0.2-0.2,0.4,0.1,0.6
			l2.5,1.6c0.1,0.1,0.2,0.1,0.3,0.1c0,0,0,0,0.1,0c0.1,0,0.3-0.1,0.4-0.2l3.3-3.7C20.5,16,20.4,15.7,20.2,15.6z"/>
	</g>
</g>
</svg>
