<?xml version="1.0" encoding="utf-8"?>
<!-- Generator: Adobe Illustrator 22.0.1, SVG Export Plug-In . SVG Version: 6.00 Build 0)  -->
<svg version="1.1" id="Capa_1" xmlns="http://www.w3.org/2000/svg" xmlns:xlink="http://www.w3.org/1999/xlink" x="0px" y="0px"
	 viewBox="0 0 24 24" style="enable-background:new 0 0 24 24;" xml:space="preserve">
<style type="text/css">
	.st0{fill:#707070;}
</style>
<g>
	<g>
		<path class="st0" d="M2.7,5.4l7.9,6.1c0.4,0.3,0.9,0.4,1.3,0.4c0.5,0,1-0.1,1.3-0.4l7.9-6.1c0.6-0.5,0.5-0.9-0.3-0.9H12H3.1
			C2.3,4.5,2.1,4.9,2.7,5.4z"/>
		<path class="st0" d="M21.8,7l-8.7,6.4c-0.3,0.2-0.7,0.4-1.2,0.3c-0.4,0-0.8-0.1-1.2-0.3L2.2,7C1.5,6.5,1,6.8,1,7.6v10.5
			c0,0.8,0.7,1.4,1.5,1.4H12h9.5c0.8,0,1.5-0.6,1.5-1.4V7.6C23,6.8,22.5,6.5,21.8,7z"/>
	</g>
</g>
</svg>
