<?xml version="1.0" encoding="utf-8"?>
<!-- Generator: Adobe Illustrator 22.0.1, SVG Export Plug-In . SVG Version: 6.00 Build 0)  -->
<svg version="1.1" id="Capa_1" xmlns="http://www.w3.org/2000/svg" xmlns:xlink="http://www.w3.org/1999/xlink" x="0px" y="0px"
	 viewBox="0 0 24 24" style="enable-background:new 0 0 24 24;" xml:space="preserve">
<g>
	<path d="M18.5,0.7H5.5c-0.5,0-1,0.4-1,0.9v21c0,0.5,0.4,0.9,1,0.9h13.1c0.5,0,1-0.4,1-0.9v-21h0C19.5,1.1,19.1,0.7,18.5,0.7z
		 M12,22.5c-0.6,0-1.2-0.5-1.2-1.1c0-0.6,0.5-1,1.2-1c0.6,0,1.2,0.5,1.2,1C13.2,22.1,12.6,22.5,12,22.5z M17.1,18.1H6.9V3.7h10.2
		L17.1,18.1L17.1,18.1z"/>
</g>
</svg>
