<?xml version="1.0" encoding="utf-8"?>
<!-- Generator: Adobe Illustrator 22.0.1, SVG Export Plug-In . SVG Version: 6.00 Build 0)  -->
<svg version="1.1" id="Layer_1" xmlns:sketch="http://www.bohemiancoding.com/sketch/ns"
	 xmlns="http://www.w3.org/2000/svg" xmlns:xlink="http://www.w3.org/1999/xlink" x="0px" y="0px" viewBox="0 0 24 24"
	 style="enable-background:new 0 0 24 24;" xml:space="preserve">
<style type="text/css">
	.st0{fill:#707070;}
</style>
<title></title>
<desc></desc>
<g id="Page-1">
	<g id="icon-111-search">
		<path id="search" class="st0" d="M14.8,16.3c-1.1,0.8-2.4,1.2-3.8,1.2c-3.6,0-6.5-2.9-6.5-6.5S7.4,4.5,11,4.5s6.5,2.9,6.5,6.5
			c0,1.4-0.4,2.7-1.2,3.8l4.3,4.3c0.4,0.4,0.4,1.1,0,1.5l0,0c-0.4,0.4-1.1,0.4-1.5,0L14.8,16.3L14.8,16.3z M11,16c2.8,0,5-2.2,5-5
			s-2.2-5-5-5s-5,2.2-5,5S8.3,16,11,16L11,16z"/>
	</g>
</g>
</svg>
