<?xml version="1.0" encoding="utf-8"?>
<!-- Generator: Adobe Illustrator 22.0.1, SVG Export Plug-In . SVG Version: 6.00 Build 0)  -->
<svg version="1.1" id="Layer_1" xmlns="http://www.w3.org/2000/svg" xmlns:xlink="http://www.w3.org/1999/xlink" x="0px" y="0px"
	 viewBox="0 0 24 24" style="enable-background:new 0 0 24 24;" xml:space="preserve">
<style type="text/css">
	.st0{fill:#157EFB;}
</style>
<g id="settings">
	<g>
		<path class="st0" d="M13.7,1.7c0.7,0,1.4,0.3,2.1,0.9l4.9,4.6l0.5-0.6L23,8.2l-2.8,3.2l-1.9-1.8l0.5-0.5l-4.9-4.6
			c-0.6-0.5-1.3-0.8-2.1-0.7c-0.6,0-1.1,0.2-1.6,0.4C11.3,2.6,12.4,1.7,13.7,1.7z"/>
		<polygon class="st0" points="19.2,5.5 17,3.5 17.4,3 19.6,5.1 		"/>
		<polygon class="st0" points="7.6,13.3 1.7,19.8 4.5,22.5 10.2,15.7 		"/>
		<g>
			<polygon class="st0" points="13.5,12 17,7.9 14.7,5.8 11.1,9.8 			"/>
			<path class="st0" d="M20.1,19.3c0.1-0.3,0.1-0.6,0.1-0.9c0-0.9-0.4-1.6-1-2.2c-0.6-0.6-1.4-0.9-2.2-0.8c-0.3,0-0.6,0.1-0.9,0.2
				L13,12.7l0,0l-2.4-2.3l0,0l-3.2-3c0.1-0.3,0.1-0.6,0.1-0.9c0-0.9-0.4-1.6-1-2.2C5.8,3.7,5,3.4,4.2,3.4c-0.3,0-0.6,0.1-0.9,0.2
				l2.5,2.3L3.6,8.5L1.1,6.1C1,6.4,1,6.7,1,7c0,0.9,0.4,1.6,1,2.2c0.6,0.6,1.4,0.9,2.2,0.8c0.3,0,0.6-0.1,0.9-0.2l1.1,1l0,0l7,6.5
				l0,0l0.6,0.6c-0.1,0.3-0.1,0.6-0.1,1c0,0.9,0.4,1.6,1,2.2c0.6,0.6,1.4,0.9,2.2,0.8c0.3,0,0.6-0.1,0.9-0.2l-2.5-2.3l2.2-2.5
				L20.1,19.3z"/>
		</g>
	</g>
</g>
<g id="Слой_1">
</g>
</svg>
